STARTFONT 2.1
COMMENT  
COMMENT  Copyright 1988 Bitstream, Inc., Cambridge, Massachusetts, USA
COMMENT  Bitstream and Charter are registered trademarks of Bitstream, Inc.
COMMENT  
COMMENT  The names "Bitstream" and "Charter" are registered trademarks of
COMMENT  Bitstream, Inc.  Permission to use these trademarks is hereby
COMMENT  granted only in association with the images described in this file.
COMMENT  
COMMENT  Permission to use, copy, modify, and distribute this software and
COMMENT  its documentation for any purpose and without fee is hereby
COMMENT  granted, provided that the above copyright notice appear in all
COMMENT  copies and that both that copyright notice and this permission
COMMENT  notice appear in supporting documentation, and that the name of
COMMENT  Bitstream not be used in advertising or publicity pertaining to
COMMENT  distribution of the software without specific, written prior
COMMENT  permission.  Bitstream makes no representations about the
COMMENT  suitability of this software for any purpose.  It is provided "as
COMMENT  is" without express or implied warranty.
COMMENT  
COMMENT  BITSTREAM DISCLAIMS ALL WARRANTIES WITH REGARD TO THIS SOFTWARE,
COMMENT  INCLUDING ALL IMPLIED WARRANTIES OF MERCHANTABILITY AND FITNESS, IN
COMMENT  NO EVENT SHALL BITSTREAM BE LIABLE FOR ANY SPECIAL, INDIRECT OR
COMMENT  CONSEQUENTIAL DAMAGES OR ANY DAMAGES WHATSOEVER RESULTING FROM LOSS
COMMENT  OF USE, DATA OR PROFITS, WHETHER IN AN ACTION OF CONTRACT,
COMMENT  NEGLIGENCE OR OTHER TORTIOUS ACTION, ARISING OUT OF OR IN
COMMENT  CONNECTION WITH THE USE OR PERFORMANCE OF THIS SOFTWARE.
COMMENT  
COMMENT  
COMMENT Fontware CVTBDF v1.0
FONT -Bitstream-Charter-Bold-I-Normal--8-80-75-75-P-50-ISO8859-1
SIZE 8 75 75
FONTBOUNDINGBOX 11 10 -2 -2
STARTPROPERTIES 22
COMMENT Begin LogicalFontDescription
FONTNAME_REGISTRY ""
FAMILY_NAME "Charter"
FOUNDRY "Bitstream"
WEIGHT_NAME "Bold"
SETWIDTH_NAME "Normal"
SLANT "I"
ADD_STYLE_NAME ""
PIXEL_SIZE 8
POINT_SIZE 80

STARTCHAR space
ENCODING 32
SWIDTH 319 0
DWIDTH 3 0
BBX 1 1 0 0
BITMAP
00
ENDCHAR
STARTCHAR exclam
ENCODING 33
SWIDTH 343 0
DWIDTH 3 0
BBX 2 6 0 0
BITMAP
40
40
40
80
00
80
ENDCHAR
STARTCHAR quotedbl
ENCODING 34
SWIDTH 339 0
DWIDTH 3 0
BBX 3 2 0 4
BITMAP
a0
a0
ENDCHAR
STARTCHAR numbersign
ENCODING 35
SWIDTH 769 0
DWIDTH 6 0
BBX 5 7 0 -1
BITMAP
28
30
f8
50
f8
60
a0
ENDCHAR
STARTCHAR dollar
ENCODING 36
SWIDTH 639 0
DWIDTH 5 0
BBX 4 7 0 -1
BITMAP
30
70
60
30
d0
e0
40
ENDCHAR
STARTCHAR percent
ENCODING 37
SWIDTH 981 0
DWIDTH 8 0
BBX 7 6 0 0
BITMAP
44
a8
b4
5a
2a
44
ENDCHAR
STARTCHAR ampersand
ENCODING 38
SWIDTH 787 0
DWIDTH 7 0
BBX 7 6 0 0
BITMAP
30
58
66
b4
d8
6e
ENDCHAR
STARTCHAR quoteright
ENCODING 39
SWIDTH 331 0
DWIDTH 3 0
BBX 3 3 0 2
BITMAP
60
20
c0
ENDCHAR
STARTCHAR parenleft
ENCODING 40
SWIDTH 440 0
DWIDTH 4 0
BBX 3 7 1 -1
BITMAP
20
40
80
80
80
80
40
ENDCHAR
STARTCHAR parenright
ENCODING 41
SWIDTH 440 0
DWIDTH 4 0
BBX 3 7 0 -1
BITMAP
40
20
20
20
20
40
80
ENDCHAR
STARTCHAR asterisk
ENCODING 42
SWIDTH 500 0
DWIDTH 4 0
BBX 3 3 1 3
BITMAP
40
a0
c0
ENDCHAR
STARTCHAR plus
ENCODING 43
SWIDTH 833 0
DWIDTH 7 0
BBX 5 5 1 0
BITMAP
20
20
f8
20
20
ENDCHAR
STARTCHAR comma
ENCODING 44
SWIDTH 322 0
DWIDTH 2 0
BBX 1 3 0 -2
BITMAP
80
80
80
ENDCHAR
STARTCHAR hyphen
ENCODING 45
SWIDTH 333 0
DWIDTH 3 0
BBX 3 1 0 1
BITMAP
e0
ENDCHAR
STARTCHAR period
ENCODING 46
SWIDTH 322 0
DWIDTH 2 0
BBX 1 1 0 0
BITMAP
80
ENDCHAR
STARTCHAR slash
ENCODING 47
SWIDTH 481 0
DWIDTH 4 0
BBX 6 7 -1 -1
BITMAP
04
08
10
10
20
40
80
ENDCHAR
STARTCHAR zero
ENCODING 48
SWIDTH 639 0
DWIDTH 5 0
BBX 4 6 1 0
BITMAP
60
50
90
90
a0
60
ENDCHAR
STARTCHAR one
ENCODING 49
SWIDTH 639 0
DWIDTH 5 0
BBX 3 6 1 0
BITMAP
60
60
20
40
40
e0
ENDCHAR
STARTCHAR two
ENCODING 50
SWIDTH 639 0
DWIDTH 5 0
BBX 4 6 0 0
BITMAP
30
50
10
20
50
f0
ENDCHAR
STARTCHAR three
ENCODING 51
SWIDTH 639 0
DWIDTH 5 0
BBX 4 6 0 0
BITMAP
30
50
10
60
10
e0
ENDCHAR
STARTCHAR four
ENCODING 52
SWIDTH 639 0
DWIDTH 5 0
BBX 5 6 0 0
BITMAP
10
30
50
90
f8
30
ENDCHAR
STARTCHAR five
ENCODING 53
SWIDTH 639 0
DWIDTH 5 0
BBX 5 6 0 0
BITMAP
78
40
70
10
90
60
ENDCHAR
STARTCHAR six
ENCODING 54
SWIDTH 639 0
DWIDTH 5 0
BBX 4 6 0 0
BITMAP
30
40
f0
90
90
60
ENDCHAR
STARTCHAR seven
ENCODING 55
SWIDTH 639 0
DWIDTH 5 0
BBX 4 6 1 0
BITMAP
f0
90
20
40
40
80
ENDCHAR
STARTCHAR eight
ENCODING 56
SWIDTH 639 0
DWIDTH 5 0
BBX 4 6 0 0
BITMAP
70
50
d0
b0
90
60
ENDCHAR
STARTCHAR nine
ENCODING 57
SWIDTH 639 0
DWIDTH 5 0
BBX 4 6 1 0
BITMAP
60
90
90
f0
20
c0
ENDCHAR
STARTCHAR colon
ENCODING 58
SWIDTH 387 0
DWIDTH 3 0
BBX 2 4 0 0
BITMAP
c0
00
00
c0
ENDCHAR
STARTCHAR semicolon
ENCODING 59
SWIDTH 387 0
DWIDTH 3 0
BBX 2 6 0 -2
BITMAP
40
00
00
40
40
80
ENDCHAR
STARTCHAR less
ENCODING 60
SWIDTH 833 0
DWIDTH 7 0
BBX 5 4 1 0
BITMAP
18
e0
60
18
ENDCHAR
STARTCHAR equal
ENCODING 61
SWIDTH 833 0
DWIDTH 7 0
BBX 5 3 1 1
BITMAP
f8
00
f8
ENDCHAR
STARTCHAR greater
ENCODING 62
SWIDTH 833 0
DWIDTH 7 0
BBX 5 4 1 0
BITMAP
c0
38
30
c0
ENDCHAR
STARTCHAR question
ENCODING 63
SWIDTH 519 0
DWIDTH 4 0
BBX 4 6 0 0
BITMAP
70
90
30
40
00
c0
ENDCHAR
STARTCHAR at
ENCODING 64
SWIDTH 942 0
DWIDTH 8 0
BBX 7 7 1 -1
BITMAP
18
64
5a
aa
bc
44
38
ENDCHAR
STARTCHAR A
ENCODING 65
SWIDTH 688 0
DWIDTH 5 0
BBX 6 6 -1 0
BITMAP
18
38
28
78
48
dc
ENDCHAR
STARTCHAR B
ENCODING 66
SWIDTH 694 0
DWIDTH 6 0
BBX 5 6 0 0
BITMAP
78
68
70
48
48
f0
ENDCHAR
STARTCHAR C
ENCODING 67
SWIDTH 671 0
DWIDTH 6 0
BBX 6 6 0 0
BITMAP
3c
44
80
80
c8
78
ENDCHAR
STARTCHAR D
ENCODING 68
SWIDTH 762 0
DWIDTH 7 0
BBX 7 6 0 0
BITMAP
7c
32
22
62
64
f8
ENDCHAR
STARTCHAR E
ENCODING 69
SWIDTH 639 0
DWIDTH 5 0
BBX 5 6 0 0
BITMAP
78
60
70
50
48
f0
ENDCHAR
STARTCHAR F
ENCODING 70
SWIDTH 590 0
DWIDTH 5 0
BBX 5 6 0 0
BITMAP
78
60
70
50
40
e0
ENDCHAR
STARTCHAR G
ENCODING 71
SWIDTH 750 0
DWIDTH 6 0
BBX 6 6 0 0
BITMAP
3c
44
80
9c
98
70
ENDCHAR
STARTCHAR H
ENCODING 72
SWIDTH 813 0
DWIDTH 7 0
BBX 7 6 0 0
BITMAP
7e
64
7c
4c
4c
fc
ENDCHAR
STARTCHAR I
ENCODING 73
SWIDTH 407 0
DWIDTH 4 0
BBX 4 6 0 0
BITMAP
70
20
60
60
40
e0
ENDCHAR
STARTCHAR J
ENCODING 74
SWIDTH 521 0
DWIDTH 4 0
BBX 5 6 0 0
BITMAP
38
10
10
30
a0
c0
ENDCHAR
STARTCHAR K
ENCODING 75
SWIDTH 708 0
DWIDTH 5 0
BBX 6 6 0 0
BITMAP
6c
68
50
70
58
cc
ENDCHAR
STARTCHAR L
ENCODING 76
SWIDTH 583 0
DWIDTH 5 0
BBX 5 6 0 0
BITMAP
70
20
60
60
48
f8
ENDCHAR
STARTCHAR M
ENCODING 77
SWIDTH 986 0
DWIDTH 8 0
BBX 8 6 0 0
BITMAP
6300
7600
7a00
5a00
5600
d600
ENDCHAR
STARTCHAR N
ENCODING 78
SWIDTH 771 0
DWIDTH 7 0
BBX 7 6 0 0
BITMAP
66
74
54
5c
5c
c8
ENDCHAR
STARTCHAR O
ENCODING 79
SWIDTH 780 0
DWIDTH 6 0
BBX 6 6 0 0
BITMAP
38
44
84
84
88
70
ENDCHAR
STARTCHAR P
ENCODING 80
SWIDTH 644 0
DWIDTH 6 0
BBX 6 6 0 0
BITMAP
7c
34
24
78
60
e0
ENDCHAR
STARTCHAR Q
ENCODING 81
SWIDTH 780 0
DWIDTH 6 0
BBX 6 8 0 -2
BITMAP
38
44
84
84
88
78
18
1c
ENDCHAR
STARTCHAR R
ENCODING 82
SWIDTH 715 0
DWIDTH 6 0
BBX 6 6 0 0
BITMAP
78
68
68
70
58
ec
ENDCHAR
STARTCHAR S
ENCODING 83
SWIDTH 593 0
DWIDTH 5 0
BBX 5 6 0 0
BITMAP
38
50
60
30
90
e0
ENDCHAR
STARTCHAR T
ENCODING 84
SWIDTH 627 0
DWIDTH 5 0
BBX 6 6 0 0
BITMAP
fc
b4
20
20
60
f0
ENDCHAR
STARTCHAR U
ENCODING 85
SWIDTH 766 0
DWIDTH 7 0
BBX 6 6 1 0
BITMAP
cc
c8
88
88
90
e0
ENDCHAR
STARTCHAR V
ENCODING 86
SWIDTH 669 0
DWIDTH 5 0
BBX 6 6 0 0
BITMAP
ec
48
48
50
70
60
ENDCHAR
STARTCHAR W
ENCODING 87
SWIDTH 981 0
DWIDTH 9 0
BBX 9 6 0 0
BITMAP
ed80
4d00
5d00
5e00
6600
4400
ENDCHAR
STARTCHAR X
ENCODING 88
SWIDTH 671 0
DWIDTH 5 0
BBX 6 6 0 0
BITMAP
6c
28
30
30
58
d8
ENDCHAR
STARTCHAR Y
ENCODING 89
SWIDTH 634 0
DWIDTH 5 0
BBX 6 6 0 0
BITMAP
ec
48
70
20
20
70
ENDCHAR
STARTCHAR Z
ENCODING 90
SWIDTH 611 0
DWIDTH 5 0
BBX 5 6 0 0
BITMAP
78
50
30
60
48
f0
ENDCHAR
STARTCHAR bracketleft
ENCODING 91
SWIDTH 495 0
DWIDTH 4 0
BBX 4 7 0 -1
BITMAP
70
40
40
40
c0
c0
e0
ENDCHAR
STARTCHAR backslash
ENCODING 92
SWIDTH 481 0
DWIDTH 4 0
BBX 4 7 0 -1
BITMAP
80
40
40
20
20
20
10
ENDCHAR
STARTCHAR bracketright
ENCODING 93
SWIDTH 495 0
DWIDTH 4 0
BBX 3 7 0 -1
BITMAP
60
20
20
20
40
40
c0
ENDCHAR
STARTCHAR asciicircum
ENCODING 94
SWIDTH 1000 0
DWIDTH 8 0
BBX 5 2 1 4
BITMAP
70
88
ENDCHAR
STARTCHAR underscore
ENCODING 95
SWIDTH 500 0
DWIDTH 4 0
BBX 4 1 0 -2
BITMAP
f0
ENDCHAR
STARTCHAR quoteleft
ENCODING 96
SWIDTH 331 0
DWIDTH 3 0
BBX 2 3 1 2
BITMAP
40
80
c0
ENDCHAR
STARTCHAR a
ENCODING 97
SWIDTH 650 0
DWIDTH 5 0
BBX 5 4 0 0
BITMAP
78
98
90
f8
ENDCHAR
STARTCHAR b
ENCODING 98
SWIDTH 627 0
DWIDTH 5 0
BBX 4 6 0 0
BITMAP
c0
40
f0
90
90
e0
ENDCHAR
STARTCHAR c
ENCODING 99
SWIDTH 498 0
DWIDTH 4 0
BBX 3 4 0 0
BITMAP
60
a0
80
e0
ENDCHAR
STARTCHAR d
ENCODING 100
SWIDTH 660 0
DWIDTH 5 0
BBX 5 6 0 0
BITMAP
18
18
78
90
90
f8
ENDCHAR
STARTCHAR e
ENCODING 101
SWIDTH 523 0
DWIDTH 4 0
BBX 4 4 0 0
BITMAP
70
90
e0
f0
ENDCHAR
STARTCHAR f
ENCODING 102
SWIDTH 373 0
DWIDTH 3 0
BBX 6 8 -2 -2
BITMAP
0c
14
38
30
30
20
20
c0
ENDCHAR
STARTCHAR g
ENCODING 103
SWIDTH 574 0
DWIDTH 4 0
BBX 5 6 0 -2
BITMAP
38
50
60
60
90
60
ENDCHAR
STARTCHAR h
ENCODING 104
SWIDTH 664 0
DWIDTH 6 0
BBX 6 6 0 0
BITMAP
60
60
78
48
58
dc
ENDCHAR
STARTCHAR i
ENCODING 105
SWIDTH 361 0
DWIDTH 3 0
BBX 2 6 1 0
BITMAP
40
00
c0
80
80
c0
ENDCHAR
STARTCHAR j
ENCODING 106
SWIDTH 338 0
DWIDTH 3 0
BBX 4 8 -1 -2
BITMAP
10
00
30
20
20
20
20
c0
ENDCHAR
STARTCHAR k
ENCODING 107
SWIDTH 627 0
DWIDTH 5 0
BBX 5 6 0 0
BITMAP
e0
40
58
60
50
d8
ENDCHAR
STARTCHAR l
ENCODING 108
SWIDTH 352 0
DWIDTH 3 0
BBX 2 6 1 0
BITMAP
c0
40
c0
80
80
c0
ENDCHAR
STARTCHAR m
ENCODING 109
SWIDTH 988 0
DWIDTH 8 0
BBX 8 4 0 0
BITMAP
f600
5a00
d600
9700
ENDCHAR
STARTCHAR n
ENCODING 110
SWIDTH 669 0
DWIDTH 6 0
BBX 6 4 0 0
BITMAP
f8
48
d8
dc
ENDCHAR
STARTCHAR o
ENCODING 111
SWIDTH 620 0
DWIDTH 5 0
BBX 4 4 0 0
BITMAP
60
90
90
60
ENDCHAR
STARTCHAR p
ENCODING 112
SWIDTH 637 0
DWIDTH 5 0
BBX 6 6 -1 -2
BITMAP
7c
24
64
78
60
f0
ENDCHAR
STARTCHAR q
ENCODING 113
SWIDTH 637 0
DWIDTH 5 0
BBX 4 6 0 -2
BITMAP
70
90
90
f0
20
70
ENDCHAR
STARTCHAR r
ENCODING 114
SWIDTH 519 0
DWIDTH 4 0
BBX 4 4 0 0
BITMAP
f0
50
c0
80
ENDCHAR
STARTCHAR s
ENCODING 115
SWIDTH 488 0
DWIDTH 4 0
BBX 4 4 0 0
BITMAP
70
d0
b0
60
ENDCHAR
STARTCHAR t
ENCODING 116
SWIDTH 414 0
DWIDTH 3 0
BBX 3 5 0 0
BITMAP
40
e0
c0
80
e0
ENDCHAR
STARTCHAR u
ENCODING 117
SWIDTH 669 0
DWIDTH 6 0
BBX 6 4 0 0
BITMAP
d8
d8
d0
fc
ENDCHAR
STARTCHAR v
ENCODING 118
SWIDTH 551 0
DWIDTH 5 0
BBX 5 4 0 0
BITMAP
d8
48
50
60
ENDCHAR
STARTCHAR w
ENCODING 119
SWIDTH 856 0
DWIDTH 7 0
BBX 7 4 0 0
BITMAP
da
5a
6c
48
ENDCHAR
STARTCHAR x
ENCODING 120
SWIDTH 565 0
DWIDTH 5 0
BBX 5 4 0 0
BITMAP
78
20
e0
98
ENDCHAR
STARTCHAR y
ENCODING 121
SWIDTH 535 0
DWIDTH 4 0
BBX 5 6 0 -2
BITMAP
c8
50
70
20
20
c0
ENDCHAR
STARTCHAR z
ENCODING 122
SWIDTH 509 0
DWIDTH 4 0
BBX 4 4 0 0
BITMAP
70
a0
50
e0
ENDCHAR
STARTCHAR braceleft
ENCODING 123
SWIDTH 500 0
DWIDTH 4 0
BBX 3 7 0 -1
BITMAP
60
40
40
80
40
40
60
ENDCHAR
STARTCHAR bar
ENCODING 124
SWIDTH 500 0
DWIDTH 4 0
BBX 1 8 2 -2
BITMAP
80
80
80
80
80
80
80
80
ENDCHAR
STARTCHAR braceright
ENCODING 125
SWIDTH 500 0
DWIDTH 4 0
BBX 3 7 1 -1
BITMAP
c0
40
40
20
40
40
c0
ENDCHAR
STARTCHAR c0126
ENCODING 126
SWIDTH 1000 0
DWIDTH 8 0
BBX 6 2 1 3
BITMAP
64
98
ENDCHAR
STARTCHAR space
ENCODING 160
SWIDTH 319 0
DWIDTH 3 0
BBX 1 1 0 0
BITMAP
00
ENDCHAR
STARTCHAR exclamdown
ENCODING 161
SWIDTH 343 0
DWIDTH 3 0
BBX 2 6 0 0
BITMAP
40
00
40
80
80
80
ENDCHAR
STARTCHAR cent
ENCODING 162
SWIDTH 639 0
DWIDTH 5 0
BBX 4 6 1 -1
BITMAP
20
70
b0
b0
60
40
ENDCHAR
STARTCHAR sterling
ENCODING 163
SWIDTH 639 0
DWIDTH 5 0
BBX 5 6 0 0
BITMAP
30
28
60
70
40
f8
ENDCHAR
STARTCHAR currency
ENCODING 164
SWIDTH 606 0
DWIDTH 5 0
BBX 5 5 0 1
BITMAP
88
70
50
70
88
ENDCHAR
STARTCHAR yen
ENCODING 165
SWIDTH 671 0
DWIDTH 6 0
BBX 6 6 0 0
BITMAP
ec
68
e8
30
f8
70
ENDCHAR
STARTCHAR brokenbar
ENCODING 166
SWIDTH 500 0
DWIDTH 4 0
BBX 1 7 2 -1
BITMAP
80
80
80
00
80
80
80
ENDCHAR
STARTCHAR section
ENCODING 167
SWIDTH 500 0
DWIDTH 3 0
BBX 4 7 -1 -1
BITMAP
30
30
30
50
20
a0
e0
ENDCHAR
STARTCHAR dieresis
ENCODING 168
SWIDTH 500 0
DWIDTH 4 0
BBX 3 1 1 5
BITMAP
a0
ENDCHAR
STARTCHAR copyright
ENCODING 169
SWIDTH 900 0
DWIDTH 7 0
BBX 6 6 1 0
BITMAP
70
78
d4
d4
38
70
ENDCHAR
STARTCHAR ordfeminine
ENCODING 170
SWIDTH 488 0
DWIDTH 4 0
BBX 4 3 0 2
BITMAP
70
a0
f0
ENDCHAR
STARTCHAR guillemotleft
ENCODING 171
SWIDTH 458 0
DWIDTH 4 0
BBX 4 3 0 0
BITMAP
50
a0
50
ENDCHAR
STARTCHAR logicalnot
ENCODING 172
SWIDTH 833 0
DWIDTH 7 0
BBX 5 2 1 1
BITMAP
f8
08
ENDCHAR
STARTCHAR hyphen
ENCODING 173
SWIDTH 333 0
DWIDTH 3 0
BBX 3 1 0 1
BITMAP
e0
ENDCHAR
STARTCHAR registered
ENCODING 174
SWIDTH 900 0
DWIDTH 7 0
BBX 6 6 1 0
BITMAP
30
78
b4
a4
78
30
ENDCHAR
STARTCHAR macron
ENCODING 175
SWIDTH 500 0
DWIDTH 4 0
BBX 3 1 1 4
BITMAP
e0
ENDCHAR
STARTCHAR degree
ENCODING 176
SWIDTH 329 0
DWIDTH 4 0
BBX 3 3 1 4
BITMAP
40
a0
40
ENDCHAR
STARTCHAR plusminus
ENCODING 177
SWIDTH 833 0
DWIDTH 7 0
BBX 5 5 1 0
BITMAP
20
f8
20
00
f8
ENDCHAR
STARTCHAR twosuperior
ENCODING 178
SWIDTH 422 0
DWIDTH 4 0
BBX 4 4 0 2
BITMAP
30
50
60
f0
ENDCHAR
STARTCHAR threesuperior
ENCODING 179
SWIDTH 422 0
DWIDTH 3 0
BBX 3 5 0 2
BITMAP
e0
20
40
20
c0
ENDCHAR
STARTCHAR acute
ENCODING 180
SWIDTH 500 0
DWIDTH 4 0
BBX 2 2 2 4
BITMAP
40
80
ENDCHAR
STARTCHAR mu
ENCODING 181
SWIDTH 578 0
DWIDTH 5 0
BBX 5 6 0 -2
BITMAP
50
50
58
f0
80
80
ENDCHAR
STARTCHAR paragraph
ENCODING 182
SWIDTH 500 0
DWIDTH 4 0
BBX 4 7 0 -1
BITMAP
70
d0
d0
d0
10
10
10
ENDCHAR
STARTCHAR periodcentered
ENCODING 183
SWIDTH 322 0
DWIDTH 2 0
BBX 1 1 1 2
BITMAP
80
ENDCHAR
STARTCHAR cedilla
ENCODING 184
SWIDTH 500 0
DWIDTH 4 0
BBX 2 3 0 -2
BITMAP
40
40
c0
ENDCHAR
STARTCHAR onesuperior
ENCODING 185
SWIDTH 422 0
DWIDTH 4 0
BBX 3 4 0 2
BITMAP
60
60
40
e0
ENDCHAR
STARTCHAR ordmasculine
ENCODING 186
SWIDTH 465 0
DWIDTH 4 0
BBX 4 3 0 2
BITMAP
60
90
60
ENDCHAR
STARTCHAR guillemotright
ENCODING 187
SWIDTH 458 0
DWIDTH 4 0
BBX 4 3 0 0
BITMAP
a0
50
a0
ENDCHAR
STARTCHAR onequarter
ENCODING 188
SWIDTH 972 0
DWIDTH 8 0
BBX 8 6 0 0
BITMAP
6400
6800
4b00
f500
1700
2200
ENDCHAR
STARTCHAR onehalf
ENCODING 189
SWIDTH 972 0
DWIDTH 9 0
BBX 9 6 0 0
BITMAP
6400
6800
4980
f280
1300
2780
ENDCHAR
STARTCHAR threequarters
ENCODING 190
SWIDTH 972 0
DWIDTH 7 0
BBX 7 7 0 0
BITMAP
e0
24
48
2e
da
1e
24
ENDCHAR
STARTCHAR questiondown
ENCODING 191
SWIDTH 519 0
DWIDTH 4 0
BBX 3 6 0 0
BITMAP
20
00
20
c0
a0
c0
ENDCHAR
STARTCHAR Agrave
ENCODING 192
SWIDTH 688 0
DWIDTH 5 0
BBX 6 8 -1 0
BITMAP
18
08
18
38
28
78
48
dc
ENDCHAR
STARTCHAR Aacute
ENCODING 193
SWIDTH 688 0
DWIDTH 5 0
BBX 6 8 -1 0
BITMAP
04
08
18
38
28
78
48
dc
ENDCHAR
STARTCHAR Acircumflex
ENCODING 194
SWIDTH 688 0
DWIDTH 5 0
BBX 6 8 -1 0
BITMAP
0c
14
18
38
28
78
48
dc
ENDCHAR
STARTCHAR Atilde
ENCODING 195
SWIDTH 688 0
DWIDTH 5 0
BBX 6 8 -1 0
BITMAP
1c
00
18
38
28
78
48
dc
ENDCHAR
STARTCHAR Adieresis
ENCODING 196
SWIDTH 688 0
DWIDTH 5 0
BBX 6 8 -1 0
BITMAP
14
00
18
38
28
78
48
dc
ENDCHAR
STARTCHAR Aring
ENCODING 197
SWIDTH 688 0
DWIDTH 5 0
BBX 6 8 -1 0
BITMAP
18
00
18
38
28
78
48
dc
ENDCHAR
STARTCHAR AE
ENCODING 198
SWIDTH 951 0
DWIDTH 8 0
BBX 9 6 -1 0
BITMAP
1f80
0c00
1700
3d00
4c80
df00
ENDCHAR
STARTCHAR Ccedilla
ENCODING 199
SWIDTH 671 0
DWIDTH 6 0
BBX 6 8 0 -2
BITMAP
3c
44
80
80
c8
78
20
60
ENDCHAR
STARTCHAR Egrave
ENCODING 200
SWIDTH 639 0
DWIDTH 5 0
BBX 5 8 0 0
BITMAP
30
10
78
60
70
50
48
f0
ENDCHAR
STARTCHAR Eacute
ENCODING 201
SWIDTH 639 0
DWIDTH 5 0
BBX 5 8 0 0
BITMAP
08
10
78
60
70
50
48
f0
ENDCHAR
STARTCHAR Ecircumflex
ENCODING 202
SWIDTH 639 0
DWIDTH 5 0
BBX 5 8 0 0
BITMAP
18
28
78
60
70
50
48
f0
ENDCHAR
STARTCHAR Edieresis
ENCODING 203
SWIDTH 639 0
DWIDTH 5 0
BBX 5 8 0 0
BITMAP
28
00
78
60
70
50
48
f0
ENDCHAR
STARTCHAR Igrave
ENCODING 204
SWIDTH 407 0
DWIDTH 4 0
BBX 4 8 0 0
BITMAP
60
20
70
20
60
60
40
e0
ENDCHAR
STARTCHAR Iacute
ENCODING 205
SWIDTH 407 0
DWIDTH 4 0
BBX 4 8 0 0
BITMAP
10
20
70
20
60
60
40
e0
ENDCHAR
STARTCHAR Icircumflex
ENCODING 206
SWIDTH 407 0
DWIDTH 4 0
BBX 4 8 0 0
BITMAP
30
50
70
20
60
60
40
e0
ENDCHAR
STARTCHAR Idieresis
ENCODING 207
SWIDTH 407 0
DWIDTH 4 0
BBX 4 8 0 0
BITMAP
50
00
70
20
60
60
40
e0
ENDCHAR
STARTCHAR Eth
ENCODING 208
SWIDTH 762 0
DWIDTH 7 0
BBX 7 6 0 0
BITMAP
7c
32
7a
62
64
f8
ENDCHAR
STARTCHAR Ntilde
ENCODING 209
SWIDTH 771 0
DWIDTH 7 0
BBX 7 8 0 0
BITMAP
38
00
66
74
54
5c
5c
c8
ENDCHAR
STARTCHAR Ograve
ENCODING 210
SWIDTH 780 0
DWIDTH 6 0
BBX 6 8 0 0
BITMAP
30
10
38
44
84
84
88
70
ENDCHAR
STARTCHAR Oacute
ENCODING 211
SWIDTH 780 0
DWIDTH 6 0
BBX 6 8 0 0
BITMAP
08
10
38
44
84
84
88
70
ENDCHAR
STARTCHAR Ocircumflex
ENCODING 212
SWIDTH 780 0
DWIDTH 6 0
BBX 6 8 0 0
BITMAP
18
28
38
44
84
84
88
70
ENDCHAR
STARTCHAR Otilde
ENCODING 213
SWIDTH 780 0
DWIDTH 6 0
BBX 6 8 0 0
BITMAP
38
00
38
44
84
84
88
70
ENDCHAR
STARTCHAR Odieresis
ENCODING 214
SWIDTH 780 0
DWIDTH 6 0
BBX 6 8 0 0
BITMAP
28
00
38
44
84
84
88
70
ENDCHAR
STARTCHAR multiply
ENCODING 215
SWIDTH 833 0
DWIDTH 7 0
BBX 5 5 1 0
BITMAP
88
50
20
50
88
ENDCHAR
STARTCHAR Oslash
ENCODING 216
SWIDTH 780 0
DWIDTH 6 0
BBX 6 7 0 -1
BITMAP
3c
4c
94
a4
c8
f0
80
ENDCHAR
STARTCHAR Ugrave
ENCODING 217
SWIDTH 766 0
DWIDTH 7 0
BBX 6 8 1 0
BITMAP
60
20
cc
c8
88
88
90
e0
ENDCHAR
STARTCHAR Uacute
ENCODING 218
SWIDTH 766 0
DWIDTH 7 0
BBX 6 8 1 0
BITMAP
10
20
cc
c8
88
88
90
e0
ENDCHAR
STARTCHAR Ucircumflex
ENCODING 219
SWIDTH 766 0
DWIDTH 7 0
BBX 6 8 1 0
BITMAP
30
50
cc
c8
88
88
90
e0
ENDCHAR
STARTCHAR Udieresis
ENCODING 220
SWIDTH 766 0
DWIDTH 7 0
BBX 6 8 1 0
BITMAP
50
00
cc
c8
88
88
90
e0
ENDCHAR
STARTCHAR Yacute
ENCODING 221
SWIDTH 634 0
DWIDTH 5 0
BBX 6 8 0 0
BITMAP
08
10
ec
48
70
20
20
70
ENDCHAR
STARTCHAR Thorn
ENCODING 222
SWIDTH 644 0
DWIDTH 6 0
BBX 6 6 0 0
BITMAP
78
3c
24
64
78
f0
ENDCHAR
STARTCHAR germandbls
ENCODING 223
SWIDTH 697 0
DWIDTH 6 0
BBX 6 8 -1 -2
BITMAP
0c
14
28
2c
34
28
c0
c0
ENDCHAR
STARTCHAR agrave
ENCODING 224
SWIDTH 650 0
DWIDTH 5 0
BBX 5 6 0 0
BITMAP
60
20
78
98
90
f8
ENDCHAR
STARTCHAR aacute
ENCODING 225
SWIDTH 650 0
DWIDTH 5 0
BBX 5 6 0 0
BITMAP
10
20
78
98
90
f8
ENDCHAR
STARTCHAR acircumflex
ENCODING 226
SWIDTH 650 0
DWIDTH 5 0
BBX 5 6 0 0
BITMAP
30
50
78
98
90
f8
ENDCHAR
STARTCHAR atilde
ENCODING 227
SWIDTH 650 0
DWIDTH 5 0
BBX 5 6 0 0
BITMAP
70
00
78
98
90
f8
ENDCHAR
STARTCHAR adieresis
ENCODING 228
SWIDTH 650 0
DWIDTH 5 0
BBX 5 6 0 0
BITMAP
50
00
78
98
90
f8
ENDCHAR
STARTCHAR aring
ENCODING 229
SWIDTH 650 0
DWIDTH 5 0
BBX 5 6 0 0
BITMAP
20
50
70
90
90
f8
ENDCHAR
STARTCHAR ae
ENCODING 230
SWIDTH 796 0
DWIDTH 7 0
BBX 7 4 0 0
BITMAP
fe
7c
b0
fe
ENDCHAR
STARTCHAR ccedilla
ENCODING 231
SWIDTH 498 0
DWIDTH 4 0
BBX 3 6 0 -2
BITMAP
60
a0
80
e0
40
c0
ENDCHAR
STARTCHAR egrave
ENCODING 232
SWIDTH 523 0
DWIDTH 4 0
BBX 4 6 0 0
BITMAP
60
20
70
90
e0
f0
ENDCHAR
STARTCHAR eacute
ENCODING 233
SWIDTH 523 0
DWIDTH 4 0
BBX 4 6 0 0
BITMAP
10
20
70
90
e0
f0
ENDCHAR
STARTCHAR ecircumflex
ENCODING 234
SWIDTH 523 0
DWIDTH 4 0
BBX 4 6 0 0
BITMAP
30
50
70
90
e0
f0
ENDCHAR
STARTCHAR edieresis
ENCODING 235
SWIDTH 523 0
DWIDTH 4 0
BBX 4 6 0 0
BITMAP
50
00
70
90
e0
f0
ENDCHAR
STARTCHAR igrave
ENCODING 236
SWIDTH 361 0
DWIDTH 3 0
BBX 3 6 0 0
BITMAP
c0
40
c0
c0
80
e0
ENDCHAR
STARTCHAR iacute
ENCODING 237
SWIDTH 361 0
DWIDTH 3 0
BBX 3 6 0 0
BITMAP
20
40
c0
c0
80
e0
ENDCHAR
STARTCHAR icircumflex
ENCODING 238
SWIDTH 361 0
DWIDTH 3 0
BBX 3 6 0 0
BITMAP
60
a0
c0
c0
80
e0
ENDCHAR
STARTCHAR idieresis
ENCODING 239
SWIDTH 361 0
DWIDTH 3 0
BBX 3 6 0 0
BITMAP
a0
00
c0
c0
80
e0
ENDCHAR
STARTCHAR eth
ENCODING 240
SWIDTH 645 0
DWIDTH 5 0
BBX 4 6 0 0
BITMAP
70
50
70
90
90
60
ENDCHAR
STARTCHAR ntilde
ENCODING 241
SWIDTH 669 0
DWIDTH 6 0
BBX 6 6 0 0
BITMAP
38
00
f8
48
d8
dc
ENDCHAR
STARTCHAR ograve
ENCODING 242
SWIDTH 620 0
DWIDTH 5 0
BBX 4 6 0 0
BITMAP
60
20
60
90
90
60
ENDCHAR
STARTCHAR oacute
ENCODING 243
SWIDTH 620 0
DWIDTH 5 0
BBX 4 6 0 0
BITMAP
10
20
60
90
90
60
ENDCHAR
STARTCHAR ocircumflex
ENCODING 244
SWIDTH 620 0
DWIDTH 5 0
BBX 4 6 0 0
BITMAP
30
50
60
90
90
60
ENDCHAR
STARTCHAR otilde
ENCODING 245
SWIDTH 620 0
DWIDTH 5 0
BBX 4 6 0 0
BITMAP
70
00
60
90
90
60
ENDCHAR
STARTCHAR odieresis
ENCODING 246
SWIDTH 620 0
DWIDTH 5 0
BBX 4 6 0 0
BITMAP
50
00
60
90
90
60
ENDCHAR
STARTCHAR divide
ENCODING 247
SWIDTH 833 0
DWIDTH 7 0
BBX 5 5 1 0
BITMAP
20
00
f8
00
20
ENDCHAR
STARTCHAR oslash
ENCODING 248
SWIDTH 620 0
DWIDTH 5 0
BBX 4 6 0 -1
BITMAP
10
60
b0
d0
60
80
ENDCHAR
STARTCHAR ugrave
ENCODING 249
SWIDTH 669 0
DWIDTH 6 0
BBX 6 6 0 0
BITMAP
60
20
d8
d8
d0
fc
ENDCHAR
STARTCHAR uacute
ENCODING 250
SWIDTH 669 0
DWIDTH 6 0
BBX 6 6 0 0
BITMAP
10
20
d8
d8
d0
fc
ENDCHAR
STARTCHAR ucircumflex
ENCODING 251
SWIDTH 669 0
DWIDTH 6 0
BBX 6 6 0 0
BITMAP
30
50
d8
d8
d0
fc
ENDCHAR
STARTCHAR udieresis
ENCODING 252
SWIDTH 669 0
DWIDTH 6 0
BBX 6 6 0 0
BITMAP
50
00
d8
d8
d0
fc
ENDCHAR
STARTCHAR yacute
ENCODING 253
SWIDTH 535 0
DWIDTH 4 0
BBX 5 8 0 -2
BITMAP
10
20
c8
50
70
20
20
c0
ENDCHAR
STARTCHAR thorn
ENCODING 254
SWIDTH 637 0
DWIDTH 5 0
BBX 6 8 -1 -2
BITMAP
70
30
3c
24
64
78
60
f0
ENDCHAR
STARTCHAR ydieresis
ENCODING 255
SWIDTH 535 0
DWIDTH 4 0
BBX 5 8 0 -2
BITMAP
50
00
c8
50
70
20
20
c0
ENDCHAR
ENDFONT
